PathFileType	3	(X/Y/Z)	D:\Vicon Database\Healthy Subjects\S0040\Jan. 30, 2020\Force Plate Walk 4.trc
DataRate	CameraRate	NumFrames	NumMarkers	Units	OrigDataRate	OrigDataStartFrame	OrigNumFrames
100.0	100.0	4	53	mm	100.0	528	329	
Frame#	Time	right_foot_cluster2			right_foot_cluster3			sternum_cluster1			sternum_cluster2			sternum_cluster3			left_asis			right_asis			left_psis			right_psis			sacrum_cluster1			sacrum_cluster2			sacrum_cluster3			left_lat_femoral_epicondyle			left_anterior_thigh15			left_anterior_thigh25			left_anterior_thigh50			left_lateral_thigh25			left_lateral_thigh50			left_thigh_cluster1			left_thigh_cluster2			left_thigh_cluster3			left_fibular_head			left_tibial_tuberosity			left_anterior_shank30			left_lateral_malleolus			left_shank_cluster1			left_shank_cluster2			left_shank_cluster3			left_heel			left_metatarsal2			left_foot_cluster1			left_foot_cluster2			left_foot_cluster3			right_lat_femoral_epicondyle			right_anterior_thigh15			right_anterior_thigh25			right_anterior_thigh50			right_lateral_thigh25			right_lateral_thigh50			right_thigh_cluster1			right_thigh_cluster2			right_thigh_cluster3			right_fibular_head			right_tibial_tuberosity			right_lateral_distal_shank			right_anterior_shank30			right_lateral_malleolus			right_shank_cluster1			right_shank_cluster2			right_shank_cluster3			right_heel			right_metatarsal2			right_foot_cluster1			
		X1	Y1	Z1	X2	Y2	Z2	X3	Y3	Z3	X4	Y4	Z4	X5	Y5	Z5	X6	Y6	Z6	X7	Y7	Z7	X8	Y8	Z8	X9	Y9	Z9	X10	Y10	Z10	X11	Y11	Z11	X12	Y12	Z12	X13	Y13	Z13	X14	Y14	Z14	X15	Y15	Z15	X16	Y16	Z16	X17	Y17	Z17	X18	Y18	Z18	X19	Y19	Z19	X20	Y20	Z20	X21	Y21	Z21	X22	Y22	Z22	X23	Y23	Z23	X24	Y24	Z24	X25	Y25	Z25	X26	Y26	Z26	X27	Y27	Z27	X28	Y28	Z28	X29	Y29	Z29	X30	Y30	Z30	X31	Y31	Z31	X32	Y32	Z32	X33	Y33	Z33	X34	Y34	Z34	X35	Y35	Z35	X36	Y36	Z36	X37	Y37	Z37	X38	Y38	Z38	X39	Y39	Z39	X40	Y40	Z40	X41	Y41	Z41	X42	Y42	Z42	X43	Y43	Z43	X44	Y44	Z44	X45	Y45	Z45	X46	Y46	Z46	X47	Y47	Z47	X48	Y48	Z48	X49	Y49	Z49	X50	Y50	Z50	X51	Y51	Z51	X52	Y52	Z52	X53	Y53	Z53	
528	5.27	676.94672	96.836555	-169.82214	675.12042	99.43161	-206.82539	325.89923	1408.0139	-103.16208	314.7565	1380.1868	-94.232948	312.67975	1383.7957	-131.89578	336.97235	1035.5889	8.5205069	331.84351	1037.1106	-242.25304	502.18976	1042.8391	-37.777061	499.70087	1049.4962	-155.21613	511.97977	1103.177	-102.30487	516.79694	1078.1447	-115.16471	520.6333	1071.6394	-76.092926	216.181	535.5799	23.655416	161.4621	647.79285	-20.790688	182.25671	727.5177	-5.156765	239.58757	849.24432	11.373284	277.53714	674.20068	50.751827	332.84976	812.23456	81.356743	317.69498	766.77118	86.533997	308.65942	738.15491	82.215141	279.08139	760.46399	88.237953	185.42178	463.06613	28.110966	128.39735	472.8775	-26.425722	77.427673	226.71628	-38.904228	87.425056	101.60345	-11.56936	113.75991	421.18851	-56.034256	100.78709	396.20044	-48.273537	117.11002	391.82596	-83.412766	147.51344	53.676117	-53.013672	-58.390587	115.90186	-44.341553	10.09796	142.81007	-38.51025	-17.418873	133.57289	-28.761372	-19.822866	141.66228	-66.201004	529.78412	518.71161	-247.80994	417.39899	570.71979	-193.53241	368.30365	644.42572	-194.79286	324.16513	772.0929	-210.72395	472.2276	667.48895	-273.09702	428.45758	806.42743	-301.60931	451.28979	759.10028	-305.68872	447.74387	731.27515	-300.98907	484.08444	739.52991	-295.85968	571.22803	462.45267	-250.79054	528.80927	427.69324	-204.05057	720.70013	235.60965	-234.871	674.83276	223.97693	-188.43228	777.60925	145.06737	-219.67531	572.79187	375.95636	-149.37491	591.39014	355.21973	-142.60088				861.98535	142.65306	-185.56825	661.86224	54.829201	-179.26152	691.91351	119.74465	-178.61836
529	5.28	670.68457	96.271545	-170.14178	668.60046	98.733467	-207.11092	311.12537	1408.0189	-101.69784	299.84793	1380.2168	-92.781403	297.85339	1383.8481	-130.4276	320.02493	1035.4036	10.156823	315.31454	1036.8726	-240.54057	485.68658	1042.189	-36.076035	483.29306	1048.7471	-153.61235	495.62482	1102.6115	-100.72818	500.38208	1077.5955	-113.56526	504.10031	1070.8182	-74.728958	201.99564	534.68079	24.023899	146.04575	645.70245	-21.659193	165.90254	726.23248	-5.3295865	222.51108	848.27765	12.440382	263.34921	673.25787	50.973953	316.05032	811.5885	82.403847	301.58246	765.96857	87.099434	293.3685	737.15002	82.129829	263.05438	759.03607	88.056999	170.77797	462.61377	28.732515	113.86497	471.68509	-26.323088	67.904045	224.22961	-39.995167	80.960228	99.36216	-11.519141	100.4585	419.71753	-56.333591	88.388023	394.20129	-48.725838	104.61629	390.29346	-83.671646	145.08788	55.761837	-51.48188	-64.731537	106.26856	-46.524227	1.9325193	136.61696	-39.571594	-25.256948	125.93307	-30.33926	-27.556126	134.12439	-67.675186	509.09531	516.79175	-248.06944	395.80771	568.77124	-194.05156	348.2594	643.47235	-194.92427	306.03232	771.8175	-209.83255	452.9317	665.88879	-272.77969	410.56445	805.36395	-299.83456	433.07199	758.31177	-304.12894	429.29724	730.36755	-299.97583	465.74207	738.15149	-294.64648	551.56232	461.44009	-251.5518	509.48703	424.80786	-204.87724	708.93329	240.11058	-235.28467	663.33392	226.5724	-189.25381	768.81104	151.40543	-220.61923	555.5802	374.5444	-150.12276	574.91949	354.58182	-143.31445				853.16046	154.30139	-185.39545	658.37439	54.080086	-179.30153	683.6756	120.13878	-179.39226
530	5.29	663.67017	95.631737	-170.61716	661.80042	97.822441	-207.86983	296.36398	1408.2394	-100.24364	284.91104	1380.5204	-91.340096	283.12466	1384.0759	-129.02008	303.04044	1035.7894	11.837912	298.84689	1036.8857	-238.82318	469.25266	1042.162	-34.420383	466.6846	1048.3143	-152.18954	479.3645	1102.2156	-99.229408	484.0343	1077.1714	-112.02204	487.79453	1070.5608	-73.151688	187.987	534.06091	24.372223	130.49272	644.29144	-24.660069	149.42799	725.8421	-5.9683261	205.64958	847.86017	13.569243	250.14558	672.07635	50.901554	299.74634	811.19952	82.999283	285.7381	765.69171	87.123154	278.1084	736.89728	82.449196	247.24548	758.36584	87.954048	155.5605	462.25974	29.275463	99.185242	470.90485	-26.511944	58.589775	221.57452	-40.961067	75.490799	97.423073	-11.684994	87.263603	417.75479	-57.029984	75.658783	392.00531	-49.516506	92.417236	388.513	-84.161209	141.37958	57.018314	-51.242432	-70.267151	97.899284	-47.506245	-5.0254793	131.33524	-40.296799	-31.724344	119.41144	-31.178368	-34.305534	127.54156	-68.560226	486.88513	514.97992	-248.65681	372.9574	566.87256	-194.93326	327.18121	642.66571	-195.12997	287.46033	771.77441	-208.83324	433.26196	664.52563	-272.29919	392.32794	804.33832	-298.65598	413.92468	757.26001	-303.10724	410.08624	729.36401	-298.9472	446.45862	736.7536	-293.46643	530.79175	460.29932	-252.15858	487.70157	421.52026	-206.65028	695.64697	244.90596	-235.66512	650.30927	229.42221	-190.13345	758.31561	157.88937	-221.037	536.61395	373.07986	-151.24881	556.66071	353.8241	-144.35231				841.79053	166.36218	-185.30878	655.30103	52.881199	-179.56705	674.98596	120.39532	-179.64384
531	5.3	655.95587	94.911736	-170.91582	654.05597	96.921272	-208.31584	281.64859	1408.6426	-98.751221	270.07907	1380.9735	-89.888733	268.49088	1384.5142	-127.58428	286.17975	1036.5573	13.535387	282.60956	1037.0349	-237.11133	452.9906	1042.2478	-32.866085	450.67078	1048.0671	-150.67584	463.23105	1101.9213	-97.931267	467.96414	1076.9644	-110.6313	471.55185	1070.2004	-71.85128	172.49783	534.19788	25.08876	114.33983	644.00684	-26.192261	133.21686	726.35199	-6.257494	188.89755	848.19067	14.932102	235.83406	671.4115	50.82066	283.61597	811.21356	83.350197	269.67145	765.88977	87.520493	262.33282	737.13458	82.939476	231.25914	758.245	88.418472	140.0396	461.94562	29.853462	84.998344	469.77625	-27.180798	49.983868	218.9588	-41.9935	71.385765	96.180275	-12.209581	74.369637	415.82101	-57.756817	63.319347	389.87228	-50.409653	80.68158	386.64142	-84.740364	138.55208	58.09045	-52.584721	-74.704514	90.717644	-47.923244	-10.510742	126.9922	-41.229176	-36.658619	114.11675	-31.874899	-39.72356	121.80827	-69.33638	463.90076	512.47876	-249.60522	348.72766	565.29388	-196.52412	304.82928	642.21368	-195.74808	268.58203	772.03058	-207.86713	412.39722	662.74774	-271.90079	373.35971	803.25458	-297.25836	394.4201	755.97876	-301.96524	390.698	728.05969	-297.87949	426.72272	734.97815	-292.34888	508.93378	459.17017	-253.67996	464.57678	417.96988	-209.11218	680.90173	249.93004	-236.04236	635.62189	232.24263	-191.34412	746.32605	164.71519	-221.40222	515.84436	371.15826	-152.86279	536.69312	352.65564	-145.8513				828.24048	179.57378	-184.89589	650.96051	52.42421	-179.6946	665.02509	120.70779	-180.02005
